<?xml version="1.0" standalone="no"?>
<!DOCTYPE svg PUBLIC "-//W3C//DTD SVG 20010904//EN"
 "http://www.w3.org/TR/2001/REC-SVG-20010904/DTD/svg10.dtd">
<svg version="1.0" xmlns="http://www.w3.org/2000/svg"
 width="441.000000pt" height="114.000000pt" viewBox="0 0 441.000000 114.000000"
 preserveAspectRatio="xMidYMid meet">

<g transform="translate(0.000000,114.000000) scale(0.100000,-0.100000)"
fill="#000000" stroke="none">
<path d="M2780 845 l0 -95 -35 0 -35 0 0 -60 0 -60 34 0 34 0 4 -142 c3 -122
6 -148 24 -178 34 -59 76 -80 160 -80 l74 0 0 70 0 70 -28 0 c-59 0 -67 17
-70 144 l-4 116 71 0 71 0 0 60 0 60 -70 0 -70 0 0 95 0 95 -80 0 -80 0 0 -95z"/>
<path d="M1369 887 c-97 -27 -175 -91 -221 -180 -33 -64 -37 -193 -8 -270 30
-79 108 -157 187 -187 79 -30 206 -26 276 9 48 23 117 81 117 97 0 5 -23 24
-51 42 l-51 34 -64 -33 c-55 -28 -70 -31 -115 -26 -158 19 -231 194 -128 311
62 72 178 86 260 32 l41 -27 54 32 c30 18 54 39 54 45 0 18 -80 81 -133 104
-59 26 -158 34 -218 17z"/>
<path d="M3350 760 c-57 -12 -87 -27 -131 -67 -109 -98 -120 -267 -25 -380 92
-109 297 -112 400 -4 l27 28 -51 32 -51 32 -55 -27 c-41 -20 -62 -25 -89 -20
-34 7 -105 59 -105 77 0 5 84 10 188 11 l187 3 3 38 c5 54 -23 139 -61 188
-53 70 -152 107 -237 89z m94 -134 c31 -13 76 -59 76 -77 0 -5 -56 -9 -125 -9
-82 0 -125 4 -125 11 0 25 25 52 63 70 50 22 67 23 111 5z"/>
<path d="M4017 683 l-87 -88 -85 85 -85 85 -47 -48 -48 -47 85 -85 85 -85 -83
-83 c-45 -45 -82 -87 -82 -93 0 -5 20 -30 45 -54 l45 -44 88 87 87 87 88 -87
87 -88 47 48 48 47 -88 87 -87 88 87 87 88 88 -50 50 -50 50 -88 -87z"/>
<path d="M2544 741 c-18 -11 -34 -25 -37 -33 -3 -7 -6 -1 -6 15 -1 27 -1 27
-76 27 l-75 0 0 -255 0 -255 75 0 75 0 0 140 c0 151 6 174 53 219 16 15 43 25
71 28 l46 6 0 63 0 64 -47 0 c-30 0 -60 -7 -79 -19z"/>
</g>
</svg>
