<?xml version="1.0" standalone="no"?>
<!DOCTYPE svg PUBLIC "-//W3C//DTD SVG 20010904//EN"
 "http://www.w3.org/TR/2001/REC-SVG-20010904/DTD/svg10.dtd">
<svg version="1.0" xmlns="http://www.w3.org/2000/svg"
 width="600.000000pt" height="600.000000pt" viewBox="0 0 600.000000 600.000000"
 preserveAspectRatio="xMidYMid meet">

<g transform="translate(0.000000,600.000000) scale(0.100000,-0.100000)"
fill="#000000" stroke="none">
<path d="M2860 5299 c-318 -20 -505 -43 -770 -96 -264 -52 -721 -179 -807
-225 l-23 -11 0 -1257 c0 -1206 1 -1260 19 -1332 25 -96 51 -153 120 -258 72
-111 173 -232 291 -350 116 -116 130 -129 350 -310 96 -79 211 -174 255 -210
211 -175 514 -415 630 -496 l74 -53 63 41 c57 37 224 160 280 206 137 114 410
342 433 363 17 14 120 105 230 201 337 295 526 506 633 708 100 189 92 55 92
1491 l0 1258 -27 15 c-16 7 -86 32 -158 55 -472 151 -939 239 -1350 256 -82 3
-163 7 -180 9 -16 2 -86 0 -155 -5z m-673 -661 c43 -39 110 -102 148 -139 39
-37 81 -77 95 -89 33 -29 231 -213 404 -378 77 -73 146 -131 152 -130 7 2 56
45 111 97 54 52 188 180 298 285 110 105 252 242 316 304 l117 112 285 0 c279
0 287 -1 297 -21 16 -29 7 -1963 -9 -2074 -16 -106 -44 -227 -71 -298 -43
-114 -173 -290 -393 -531 -74 -81 -82 -87 -94 -70 -11 15 -13 209 -13 1044 0
564 -2 1026 -5 1028 -5 2 -103 -75 -410 -326 l-170 -138 -5 -455 -5 -454 -270
0 -270 0 -3 447 -2 447 -248 224 c-136 124 -262 237 -279 252 l-33 27 0 -1044
c0 -573 0 -1049 0 -1055 0 -37 -61 17 -256 227 -73 80 -191 241 -223 308 -50
101 -69 173 -101 383 -11 73 -14 2071 -3 2082 3 4 131 7 284 7 l278 0 78 -72z"/>
</g>
</svg>
