<?xml version="1.0" standalone="no"?>
<!DOCTYPE svg PUBLIC "-//W3C//DTD SVG 20010904//EN"
 "http://www.w3.org/TR/2001/REC-SVG-20010904/DTD/svg10.dtd">
<svg version="1.0" xmlns="http://www.w3.org/2000/svg"
 width="271.000000pt" height="271.000000pt" viewBox="0 0 271.000000 271.000000"
 preserveAspectRatio="xMidYMid meet">

<g transform="translate(0.000000,271.000000) scale(0.100000,-0.100000)"
fill="#000000" stroke="none">
<path d="M1121 916 c-142 -47 -178 -224 -60 -295 18 -11 68 -29 113 -41 105
-27 126 -36 126 -55 0 -37 -111 -31 -193 11 l-52 26 -47 -54 c-53 -60 -52 -66
21 -102 147 -74 357 -55 423 36 14 20 23 52 26 86 9 103 -38 146 -201 188
-103 26 -122 38 -93 60 31 22 88 13 187 -30 11 -5 27 9 57 53 l42 59 -23 14
c-79 51 -239 72 -326 44z"/>
<path d="M1550 646 l0 -276 90 0 90 0 0 74 0 73 80 6 c101 7 161 34 198 90 23
34 27 51 27 112 0 63 -3 76 -29 109 -51 67 -96 80 -288 84 l-168 4 0 -276z
m267 123 c33 -12 43 -26 43 -61 0 -36 -33 -58 -87 -58 l-43 0 0 65 0 65 29 0
c16 0 42 -5 58 -11z"/>
<path d="M0 635 l0 -275 90 0 89 0 3 138 3 137 58 -92 c32 -51 62 -95 66 -98
5 -2 35 38 67 90 32 52 62 94 67 95 4 0 7 -61 7 -135 l0 -135 90 0 90 0 0 275
0 275 -97 0 -98 0 -58 -95 c-32 -52 -62 -93 -67 -90 -4 3 -32 45 -61 95 l-54
89 -97 1 -98 0 0 -275z"/>
<path d="M720 635 l0 -275 90 0 90 0 0 275 0 275 -90 0 -90 0 0 -275z"/>
<path d="M300 185 l0 -115 25 0 c23 0 25 4 25 46 0 54 14 84 39 84 24 0 31
-19 31 -81 0 -46 2 -49 25 -49 23 0 25 3 25 49 0 94 -34 135 -90 107 l-30 -14
0 44 c0 40 -2 44 -25 44 l-25 0 0 -115z"/>
<path d="M1580 185 l0 -115 25 0 c22 0 24 4 27 56 2 41 8 60 20 68 26 16 38
-3 45 -68 5 -46 9 -56 24 -56 17 0 19 8 19 69 0 43 -5 72 -12 78 -25 19 -46
21 -72 8 l-26 -14 0 45 c0 40 -2 44 -25 44 l-25 0 0 -115z"/>
<path d="M2160 280 c0 -15 7 -20 25 -20 18 0 25 5 25 20 0 15 -7 20 -25 20
-18 0 -25 -5 -25 -20z"/>
<path d="M70 270 c0 -16 7 -20 35 -20 l35 0 0 -90 c0 -89 0 -90 25 -90 25 0
25 1 25 90 l0 90 40 0 c33 0 40 3 40 20 0 19 -7 20 -100 20 -93 0 -100 -1
-100 -20z"/>
<path d="M1370 270 c-25 -25 -26 -62 -2 -82 9 -9 36 -22 60 -29 35 -10 42 -16
40 -33 -2 -17 -10 -21 -38 -21 -19 1 -45 4 -57 9 -19 6 -23 4 -23 -13 0 -20 8
-24 66 -36 33 -6 84 9 96 28 12 19 9 75 -4 84 -7 4 -33 15 -58 23 -77 26 -56
68 25 50 30 -7 35 -5 35 10 0 22 -19 30 -76 30 -31 0 -50 -6 -64 -20z"/>
<path d="M1100 255 c0 -14 -4 -25 -10 -25 -5 0 -10 -7 -10 -15 0 -8 4 -15 9
-15 5 0 11 -25 13 -56 5 -62 16 -74 66 -74 37 0 46 27 10 32 -20 3 -23 10 -26
51 -3 46 -3 47 27 47 21 0 31 5 31 15 0 10 -10 15 -30 15 -25 0 -30 4 -30 25
0 20 -5 25 -25 25 -20 0 -25 -5 -25 -25z"/>
<path d="M598 224 c-16 -8 -28 -10 -28 -4 0 5 -11 10 -25 10 -25 0 -25 -1 -25
-80 0 -79 0 -80 25 -80 23 0 25 4 25 43 0 49 22 87 51 87 12 0 19 7 19 20 0
24 -6 24 -42 4z"/>
<path d="M713 225 c-35 -15 -46 -41 -41 -96 2 -28 10 -37 38 -51 40 -20 108
-14 117 9 8 21 0 24 -36 13 -38 -10 -71 1 -71 25 0 12 14 15 60 15 56 0 60 2
60 23 -1 29 -20 54 -54 67 -34 12 -34 12 -73 -5z m77 -45 c0 -6 -16 -10 -35
-10 -38 0 -46 13 -18 29 19 10 53 -2 53 -19z"/>
<path d="M918 233 c-19 -3 -28 -10 -28 -23 0 -16 4 -17 31 -10 20 6 39 6 50
-1 30 -16 22 -29 -17 -29 -51 0 -74 -15 -74 -50 0 -21 8 -35 26 -47 25 -16 28
-16 55 0 16 9 29 12 29 7 0 -6 11 -10 25 -10 24 0 25 2 25 63 0 34 -4 67 -8
74 -8 13 -57 34 -75 32 -7 -1 -24 -4 -39 -6z m72 -108 c0 -17 -29 -34 -47 -28
-7 3 -13 13 -13 24 0 14 7 19 30 19 20 0 30 -5 30 -15z"/>
<path d="M1828 233 c-19 -3 -28 -10 -28 -23 0 -16 4 -17 30 -10 35 10 70 3 70
-15 0 -7 -19 -14 -46 -18 -26 -2 -50 -11 -55 -18 -17 -26 -5 -63 24 -77 24
-12 31 -11 52 2 15 10 26 12 30 6 3 -6 15 -10 26 -10 17 0 19 7 19 63 0 35 -6
70 -12 79 -14 18 -67 28 -110 21z m72 -108 c0 -19 -32 -36 -49 -25 -8 4 -11
15 -8 24 8 20 57 22 57 1z"/>
<path d="M2088 226 c-16 -8 -28 -11 -28 -5 0 5 -11 9 -25 9 -25 0 -25 -1 -25
-80 0 -79 0 -80 25 -80 23 0 25 3 25 49 0 55 21 86 51 78 15 -4 19 0 19 19 0
28 -5 29 -42 10z"/>
<path d="M2348 226 c-16 -8 -28 -11 -28 -5 0 5 -11 9 -25 9 -25 0 -25 -1 -25
-80 0 -79 0 -80 25 -80 24 0 25 3 25 54 0 60 19 88 48 69 12 -7 18 -27 20 -67
3 -53 4 -56 29 -56 26 0 26 0 20 67 -4 53 -10 71 -27 85 -27 22 -28 22 -62 4z"/>
<path d="M2529 228 c-49 -16 -64 -87 -28 -132 21 -27 71 -36 84 -16 9 15 25
12 25 -4 0 -30 -31 -48 -72 -42 -29 5 -38 3 -38 -8 0 -26 68 -36 113 -15 36
16 47 50 47 139 0 79 0 80 -25 80 -14 0 -25 -5 -25 -11 0 -8 -4 -8 -12 -2 -22
17 -42 20 -69 11z m71 -49 c16 -29 5 -66 -22 -75 -25 -7 -48 17 -48 51 0 44
50 62 70 24z"/>
<path d="M2160 150 c0 -79 0 -80 25 -80 25 0 25 1 25 80 0 79 0 80 -25 80 -25
0 -25 -1 -25 -80z"/>
</g>
</svg>
