<?xml version="1.0" standalone="no"?>
<!DOCTYPE svg PUBLIC "-//W3C//DTD SVG 20010904//EN"
 "http://www.w3.org/TR/2001/REC-SVG-20010904/DTD/svg10.dtd">
<svg version="1.0" xmlns="http://www.w3.org/2000/svg"
 width="397.000000pt" height="127.000000pt" viewBox="0 0 397.000000 127.000000"
 preserveAspectRatio="xMidYMid meet">

<g transform="translate(0.000000,127.000000) scale(0.100000,-0.100000)"
fill="#000000" stroke="none">
<path d="M1120 625 l0 -295 50 0 50 0 2 209 3 209 151 -207 151 -206 51 -3 52
-3 0 295 0 296 -50 0 -50 0 -2 -205 -3 -205 -150 205 -150 205 -52 0 -53 0 0
-295z"/>
<path d="M3718 893 c7 -3 16 -2 19 1 4 3 -2 6 -13 5 -11 0 -14 -3 -6 -6z"/>
<path d="M3782 840 c0 -14 2 -19 5 -12 2 6 2 18 0 25 -3 6 -5 1 -5 -13z"/>
<path d="M3711 837 c2 -1 12 -9 22 -16 15 -12 17 -12 11 3 -3 9 -13 16 -22 16
-8 0 -13 -1 -11 -3z"/>
<path d="M3670 821 c0 -10 39 -46 43 -40 2 2 -7 14 -20 26 -13 12 -23 19 -23
14z"/>
<path d="M3756 795 c-11 -8 -15 -15 -9 -15 6 0 16 7 23 15 16 19 11 19 -14 0z"/>
<path d="M1842 760 c-151 -36 -215 -246 -110 -366 47 -54 96 -74 176 -74 53 0
79 6 120 26 43 21 50 29 42 42 -26 46 -25 46 -75 22 -70 -34 -137 -25 -182 24
-18 19 -33 45 -33 56 0 19 6 20 165 20 l165 0 0 28 c0 16 -7 52 -16 81 -32
110 -136 169 -252 141z m130 -90 c24 -18 55 -76 47 -85 -4 -3 -211 -8 -241 -6
-15 2 16 62 44 86 38 32 113 35 150 5z"/>
<path d="M2225 756 c-56 -21 -95 -67 -95 -112 0 -77 36 -108 163 -140 73 -18
97 -34 97 -64 0 -52 -104 -66 -186 -25 l-49 25 -17 -23 c-28 -35 -22 -46 38
-74 48 -22 66 -25 134 -21 91 4 124 21 154 83 17 35 18 42 5 79 -18 52 -58 79
-150 101 -82 20 -115 45 -99 74 23 44 121 47 175 7 28 -21 32 -20 49 13 12 23
13 31 3 39 -55 44 -158 61 -222 38z"/>
<path d="M2595 756 c-61 -23 -95 -66 -95 -122 0 -66 32 -94 140 -123 117 -32
143 -58 100 -101 -29 -29 -103 -27 -166 5 l-49 25 -17 -23 c-27 -35 -22 -46
35 -72 57 -27 162 -34 214 -14 68 25 101 92 80 157 -16 47 -59 75 -147 97 -39
10 -80 25 -92 35 -21 17 -21 19 -6 42 29 43 111 45 174 3 31 -20 31 -20 48 14
12 23 13 31 3 39 -55 44 -158 61 -222 38z"/>
<path d="M3435 761 c-48 -12 -75 -30 -95 -64 -55 -89 5 -167 145 -192 63 -12
95 -32 95 -60 0 -57 -101 -74 -184 -30 -26 14 -49 25 -51 25 -3 0 -12 -14 -21
-31 -18 -36 -17 -37 51 -69 56 -27 164 -27 221 0 77 38 96 131 38 191 -19 20
-50 34 -111 50 -103 27 -118 37 -109 72 12 50 112 57 181 11 21 -13 24 -13 39
10 23 36 21 42 -26 65 -49 23 -129 33 -173 22z"/>
<path d="M2890 583 c0 -160 2 -181 20 -211 24 -39 54 -52 121 -52 49 0 97 17
132 48 16 14 17 13 17 -11 0 -25 3 -27 45 -27 l45 0 0 215 0 215 -45 0 -45 0
0 -159 0 -159 -26 -17 c-64 -42 -141 -37 -162 11 -8 15 -12 82 -12 174 l0 150
-45 0 -45 0 0 -177z"/>
<path d="M430 646 c0 -2 7 -7 16 -10 8 -3 12 -2 9 4 -6 10 -25 14 -25 6z"/>
<path d="M241 614 c0 -11 3 -14 6 -6 3 7 2 16 -1 19 -3 4 -6 -2 -5 -13z"/>
<path d="M679 423 c-13 -16 -12 -17 4 -4 16 13 21 21 13 21 -2 0 -10 -8 -17
-17z"/>
</g>
</svg>
