<?xml version="1.0" standalone="no"?>
<!DOCTYPE svg PUBLIC "-//W3C//DTD SVG 20010904//EN"
 "http://www.w3.org/TR/2001/REC-SVG-20010904/DTD/svg10.dtd">
<svg version="1.0" xmlns="http://www.w3.org/2000/svg"
 width="204.000000pt" height="192.000000pt" viewBox="0 0 204.000000 192.000000"
 preserveAspectRatio="xMidYMid meet">

<g transform="translate(0.000000,192.000000) scale(0.100000,-0.100000)"
fill="#000000" stroke="none">
<path d="M953 1349 c-15 -10 -36 -35 -45 -56 -17 -37 -17 -38 5 -44 16 -4 31
4 58 32 20 20 39 43 42 50 4 10 6 9 6 -3 1 -10 6 -18 12 -18 5 0 7 -4 4 -10
-3 -5 -14 -10 -24 -10 -39 0 -61 -59 -32 -83 20 -17 61 -20 78 -5 15 12 17 64
3 73 -5 3 -10 11 -10 18 0 6 7 4 17 -5 24 -25 21 -74 -7 -98 -13 -11 -27 -20
-32 -20 -4 0 -8 -11 -8 -25 0 -29 17 -32 60 -10 28 14 60 60 60 85 0 5 -9 10
-20 10 -11 0 -20 5 -20 10 0 6 9 10 21 10 18 0 20 4 15 28 -4 15 -22 41 -41
59 -39 38 -95 42 -142 12z m91 -94 c20 -15 20 -15 0 -30 -23 -18 -25 -18 -48
0 -15 12 -16 16 -5 29 17 19 29 19 53 1z"/>
<path d="M903 1199 c23 -61 107 -107 107 -59 0 29 -64 90 -94 90 -23 0 -24 -2
-13 -31z"/>
<path d="M353 640 c-34 -14 -40 -56 -13 -92 18 -25 22 -42 21 -95 -1 -39 -7
-73 -16 -86 -20 -29 -19 -53 5 -77 16 -16 33 -20 89 -20 61 0 72 3 86 22 l16
23 16 -23 c15 -21 22 -22 132 -22 84 0 122 4 137 14 17 12 22 12 39 0 28 -21
268 -20 285 1 11 13 15 13 33 0 32 -23 323 -22 356 1 23 16 25 43 7 85 -5 12
-1 18 17 23 42 10 87 71 87 116 0 53 -14 81 -57 110 -34 23 -46 25 -149 25
-101 0 -115 -2 -128 -20 -21 -27 -20 -48 3 -77 21 -26 35 -161 16 -155 -5 2
-33 59 -61 128 l-52 124 -165 1 -166 2 -17 -44 c-9 -25 -21 -47 -25 -50 -5 -2
-18 18 -30 45 l-21 50 -123 0 c-110 0 -126 -2 -150 -21 -22 -17 -29 -19 -36
-7 -5 8 -9 17 -9 22 0 10 -100 8 -127 -3z m167 -127 l70 -108 0 77 c0 72 -1
77 -22 80 -15 2 -24 11 -26 25 -4 27 31 39 86 28 20 -4 48 -6 62 -5 90 7 82
11 119 -67 19 -40 38 -73 42 -73 3 0 19 31 35 69 28 68 41 80 86 81 9 0 24 -7
33 -16 14 -15 14 -18 0 -33 -11 -14 -15 -42 -15 -119 0 -56 4 -102 8 -102 21
0 42 31 72 105 17 44 34 86 37 93 3 8 -5 12 -26 12 -39 0 -53 26 -26 46 20 15
112 19 133 6 7 -5 33 -60 58 -123 51 -128 72 -154 110 -137 23 11 24 15 24
110 0 77 -3 98 -14 98 -7 0 -19 6 -25 14 -9 11 -8 18 6 31 14 15 30 17 103 13
50 -3 99 -12 116 -21 42 -22 60 -65 44 -111 -14 -45 -51 -68 -119 -75 -48 -5
-56 -9 -59 -28 -3 -19 3 -23 42 -28 35 -6 46 -12 46 -25 0 -10 -8 -21 -17 -24
-30 -9 -277 -5 -295 5 -21 11 -14 35 13 42 13 3 17 10 13 22 -5 13 -19 15 -72
13 -43 -2 -67 -7 -70 -16 -2 -7 5 -16 17 -19 15 -4 21 -12 19 -27 -3 -20 -9
-21 -113 -24 -60 -1 -116 2 -124 7 -19 12 -6 41 19 41 18 0 20 6 19 73 l-1 72
-25 -57 c-23 -50 -30 -58 -53 -58 -24 0 -31 7 -50 55 -12 30 -26 55 -30 55 -4
0 -7 -30 -6 -67 1 -61 3 -68 21 -68 15 0 20 -7 20 -25 0 -22 -5 -25 -42 -28
-46 -3 -83 11 -83 32 0 8 7 16 15 20 22 8 22 201 0 210 -36 14 -45 -3 -47 -93
-2 -84 -4 -136 -7 -156 0 -6 -12 -12 -25 -13 -20 -1 -34 14 -86 94 -35 52 -67
97 -72 100 -4 3 -8 -26 -8 -64 0 -66 1 -70 25 -76 28 -7 34 -40 9 -50 -20 -8
-78 -8 -98 0 -20 8 -21 28 -1 44 11 10 15 35 15 110 0 89 -2 98 -20 103 -25 6
-27 44 -2 50 63 17 69 12 142 -100z m528 18 c11 -7 10 -16 -6 -52 l-20 -44 -1
53 c-1 52 3 59 27 43z"/>
<path d="M1439 558 c0 -2 -2 -22 -5 -45 l-5 -43 46 0 c57 0 85 14 85 42 0 30
-28 47 -77 48 -24 0 -43 -1 -44 -2z m81 -38 c0 -5 -12 -10 -26 -10 -14 0 -23
4 -19 10 3 6 15 10 26 10 10 0 19 -4 19 -10z"/>
<path d="M1140 490 l-20 -40 40 0 c22 0 40 2 40 4 0 9 -31 76 -35 76 -2 0 -14
-18 -25 -40z"/>
</g>
</svg>
