<?xml version="1.0" standalone="no"?>
<!DOCTYPE svg PUBLIC "-//W3C//DTD SVG 20010904//EN"
 "http://www.w3.org/TR/2001/REC-SVG-20010904/DTD/svg10.dtd">
<svg version="1.0" xmlns="http://www.w3.org/2000/svg"
 width="244.000000pt" height="192.000000pt" viewBox="0 0 244.000000 192.000000"
 preserveAspectRatio="xMidYMid meet">

<g transform="translate(0.000000,192.000000) scale(0.100000,-0.100000)"
fill="#000000" stroke="none">
<path d="M0 960 l0 -960 1220 0 1220 0 0 960 0 960 -1220 0 -1220 0 0 -960z
m1365 704 c187 -8 342 -17 344 -20 5 -4 -234 -244 -243 -244 -1 0 -101 58
-222 128 -120 71 -228 134 -239 140 -20 11 -20 11 1 12 11 0 173 -7 359 -16z
m-311 -88 c262 -155 406 -236 417 -236 7 0 72 59 146 132 l133 132 0 -202 c0
-111 -2 -202 -3 -202 -2 0 -84 -29 -182 -65 -97 -36 -178 -65 -180 -65 -1 0
-5 31 -8 68 -4 38 -14 86 -22 108 -15 38 -15 38 -10 6 3 -20 1 -31 -5 -27 -6
3 -10 -6 -11 -22 -1 -21 -6 -13 -20 32 -10 33 -29 73 -42 89 l-23 29 -160 2
c-182 2 -187 3 -155 16 22 9 23 13 17 59 -4 28 -3 50 2 50 5 0 10 -23 11 -51
0 -28 3 -53 5 -57 2 -4 33 -5 68 -2 63 5 63 5 66 38 2 17 6 32 10 32 4 0 7
-15 7 -32 0 -33 1 -33 53 -36 29 -2 52 1 52 7 0 15 -82 81 -101 81 -10 0 -33
9 -52 20 -22 13 -58 22 -101 25 l-66 4 0 -321 c0 -301 1 -320 18 -313 69 27
283 105 290 105 4 1 25 9 47 20 22 11 43 19 48 20 14 0 7 -32 -20 -88 -15 -31
-26 -63 -25 -71 2 -8 -1 -10 -10 -5 -10 6 -10 4 1 -9 12 -16 9 -22 -30 -58
-115 -105 -281 -135 -431 -79 -64 24 -148 84 -148 105 0 8 -5 15 -11 15 -6 0
-8 8 -4 19 3 12 -4 40 -18 68 -33 65 -46 108 -51 170 -12 142 66 294 194 379
23 15 39 33 36 40 -7 18 13 31 59 39 88 14 85 12 85 56 0 49 -3 50 124 -25z
m-95 -298 c-5 -55 -2 -58 56 -58 30 0 64 6 75 13 17 10 22 9 29 -1 5 -9 26
-12 67 -10 l59 3 6 40 6 40 2 -38 c1 -30 6 -39 26 -47 14 -5 25 -11 25 -12 0
-9 -356 -2 -362 7 -5 6 -8 6 -8 -1 0 -6 -7 -11 -15 -11 -22 0 -18 15 5 22 11
4 18 11 14 16 -6 11 3 59 12 59 2 0 4 -10 3 -22z m327 -208 c24 0 32 -14 14
-25 -5 -3 -10 -2 -10 3 0 12 -293 9 -302 -3 -5 -6 -8 -5 -8 3 0 9 -10 11 -35
6 -19 -3 -35 -2 -35 2 0 13 48 34 52 23 2 -5 30 -9 63 -8 33 0 97 -1 143 -1
l82 -2 2 49 2 48 3 -47 c4 -43 7 -48 29 -48z m-326 59 c0 -11 -4 -17 -10 -14
-5 3 -10 13 -10 21 0 8 5 14 10 14 6 0 10 -9 10 -21z m150 -1 c0 -19 -2 -20
-10 -8 -13 19 -13 30 0 30 6 0 10 -10 10 -22z m-150 -165 c0 -43 -9 -39 -15 6
-2 17 1 31 6 31 5 0 9 -16 9 -37z m150 23 c0 -23 -16 -27 -17 -5 -1 10 2 19 8
19 5 0 9 -6 9 -14z m-150 -76 c0 -5 -2 -10 -4 -10 -3 0 -8 5 -11 10 -3 6 -1
10 4 10 6 0 11 -4 11 -10z m650 -439 c0 -11 -23 -31 -34 -31 -6 0 -12 15 -12
34 -1 34 -1 35 22 19 13 -8 24 -18 24 -22z m-990 -112 c0 -5 -4 -9 -10 -9 -5
0 -10 7 -10 16 0 8 5 12 10 9 6 -3 10 -10 10 -16z m553 -16 c-6 -16 9 -17 26
0 11 10 12 7 7 -16 -4 -17 -2 -35 5 -43 9 -11 8 -14 -5 -14 -9 0 -16 5 -16 10
0 6 -5 10 -11 10 -5 0 -7 -5 -3 -11 4 -7 1 -10 -7 -7 -15 5 -24 69 -14 96 5
14 8 14 15 3 4 -8 6 -20 3 -28z m-594 14 c14 -18 2 -30 -15 -16 -21 17 -44 3
-44 -26 0 -28 25 -44 43 -26 6 6 16 11 22 11 5 -1 -1 -10 -14 -21 -21 -17 -26
-18 -45 -6 -24 16 -33 62 -15 83 15 18 53 18 68 1z m399 1 c15 -19 -4 -58 -28
-58 -11 0 -20 -7 -20 -15 0 -8 -4 -15 -10 -15 -5 0 -10 23 -10 50 0 48 1 50
29 50 16 0 33 -6 39 -12z m502 2 c0 -5 -6 -10 -14 -10 -10 0 -16 -14 -18 -42
-2 -24 -7 -43 -13 -43 -5 0 -11 19 -13 43 -2 23 -7 42 -13 42 -5 0 -9 5 -9 10
0 6 18 10 40 10 22 0 40 -4 40 -10z m-140 -11 c11 -8 12 -12 3 -16 -7 -2 -13
-12 -13 -22 0 -9 6 -23 13 -30 10 -10 8 -12 -8 -9 -20 3 -36 49 -27 76 5 15
12 15 32 1z m-652 -18 c3 -9 -2 -11 -17 -6 -30 9 -26 -3 4 -15 30 -11 32 -26
6 -39 -13 -7 -23 -6 -37 5 -18 13 -17 14 10 8 21 -5 27 -4 22 5 -4 6 -13 11
-21 11 -23 0 -29 22 -9 37 21 15 36 13 42 -6z m66 13 c23 -9 20 -26 -4 -19
-17 5 -20 2 -20 -20 0 -22 3 -25 20 -20 12 4 20 2 20 -5 0 -6 -12 -10 -27 -8
-31 3 -43 38 -23 64 14 16 13 16 34 8z m96 -8 c6 -8 10 -25 8 -38 -2 -18 -9
-23 -33 -23 -24 0 -31 5 -33 23 -6 42 33 68 58 38z m194 8 c24 -9 21 -70 -4
-77 -23 -6 -56 16 -46 31 4 7 16 12 27 12 10 0 19 5 19 11 0 6 -9 8 -20 4 -21
-7 -28 10 -7 18 6 3 13 6 14 6 1 1 8 -2 17 -5z m80 0 c24 -9 19 -24 -6 -21
-17 1 -23 -3 -23 -18 0 -15 6 -19 23 -18 13 2 21 -1 17 -7 -10 -15 -52 -12
-59 5 -6 17 3 47 18 57 13 9 11 9 30 2z m160 -10 c23 -22 20 -34 -9 -34 -14 0
-25 -5 -25 -11 0 -6 9 -8 20 -4 11 4 20 2 20 -4 0 -19 -49 -12 -59 7 -7 14 -6
25 5 40 18 26 27 27 48 6z m228 -6 c-7 -7 -12 -22 -12 -35 0 -13 -4 -23 -10
-23 -5 0 -10 15 -10 34 0 25 5 36 18 38 23 6 28 0 14 -14z m62 16 c10 -4 16
-18 16 -40 0 -31 -3 -34 -30 -34 -23 0 -30 4 -30 20 0 13 7 20 20 20 11 0 20
5 20 11 0 6 -9 8 -22 3 -20 -6 -21 -5 -9 10 15 18 14 18 35 10z m106 -20 c0
-4 -11 -3 -25 0 -22 6 -25 3 -25 -19 0 -22 3 -25 28 -20 25 6 26 6 8 -9 -25
-20 -56 -4 -56 29 0 29 27 47 52 34 10 -5 18 -12 18 -15z m61 16 c28 -15 24
-40 -6 -40 -14 0 -25 -5 -25 -11 0 -7 10 -9 28 -4 20 5 24 4 16 -5 -7 -6 -22
-10 -35 -8 -27 3 -38 40 -19 64 15 17 16 17 41 4z m65 -12 c-9 -5 -16 -20 -16
-33 0 -14 -4 -25 -10 -25 -5 0 -10 15 -10 34 0 25 5 36 18 39 25 5 37 -4 18
-15z m-1186 -23 c0 -19 -4 -35 -10 -35 -5 0 -10 16 -10 35 0 19 5 35 10 35 6
0 10 -16 10 -35z"/>
<path d="M930 335 c0 -8 7 -15 15 -15 8 0 15 7 15 15 0 8 -7 15 -15 15 -8 0
-15 -7 -15 -15z"/>
<path d="M810 305 c0 -17 5 -25 13 -22 6 2 12 12 12 22 0 10 -6 20 -12 23 -8
2 -13 -6 -13 -23z"/>
<path d="M1015 290 c-3 -5 1 -10 9 -10 9 0 16 5 16 10 0 6 -4 10 -9 10 -6 0
-13 -4 -16 -10z"/>
<path d="M1250 320 c0 -5 5 -10 10 -10 6 0 10 5 10 10 0 6 -4 10 -10 10 -5 0
-10 -4 -10 -10z"/>
<path d="M1550 290 c0 -5 4 -10 9 -10 6 0 13 5 16 10 3 6 -1 10 -9 10 -9 0
-16 -4 -16 -10z"/>
<path d="M1710 320 c0 -5 5 -10 10 -10 6 0 10 5 10 10 0 6 -4 10 -10 10 -5 0
-10 -4 -10 -10z"/>
</g>
</svg>
