<?xml version="1.0" standalone="no"?>
<!DOCTYPE svg PUBLIC "-//W3C//DTD SVG 20010904//EN"
 "http://www.w3.org/TR/2001/REC-SVG-20010904/DTD/svg10.dtd">
<svg version="1.0" xmlns="http://www.w3.org/2000/svg"
 width="204.000000pt" height="204.000000pt" viewBox="0 0 204.000000 204.000000"
 preserveAspectRatio="xMidYMid meet">

<g transform="translate(0.000000,204.000000) scale(0.100000,-0.100000)"
fill="#000000" stroke="none">
<path d="M775 2009 c-22 -10 -161 -71 -310 -135 -403 -173 -408 -175 -433
-201 -24 -26 -28 -62 -12 -93 8 -15 116 -97 218 -166 2 -1 -12 -42 -31 -91
-51 -126 -69 -226 -69 -368 0 -162 26 -278 92 -412 126 -255 339 -431 612
-505 122 -33 356 -33 478 0 79 22 231 88 291 128 26 17 28 16 83 -14 68 -39
108 -41 141 -7 37 36 33 82 -9 135 -30 39 -38 70 -16 70 8 0 97 134 125 189
76 150 111 375 86 549 -45 310 -240 581 -516 717 -136 67 -216 86 -382 92
l-141 5 -38 55 c-20 30 -45 58 -55 63 -27 15 -70 11 -114 -11z m235 -270 c85
-122 179 -256 208 -297 28 -42 49 -79 45 -83 -5 -4 -33 -16 -63 -26 -30 -11
-55 -24 -55 -30 0 -6 39 -60 87 -120 174 -215 238 -297 238 -305 0 -4 -18 -12
-40 -18 -22 -5 -58 -15 -80 -20 -22 -6 -40 -15 -40 -19 0 -5 46 -67 103 -137
57 -71 161 -203 232 -294 71 -91 133 -167 137 -168 10 -5 10 -32 1 -32 -10 0
-51 23 -378 212 -148 86 -367 212 -485 280 -118 68 -215 130 -215 137 0 8 30
25 68 38 37 14 67 30 67 37 0 6 -26 29 -58 52 -205 146 -382 278 -382 285 0 4
25 19 56 33 31 14 54 30 52 36 -3 9 -87 71 -338 249 -49 36 -90 68 -90 72 0 6
43 26 310 142 185 81 455 196 460 197 3 0 75 -100 160 -221z"/>
</g>
</svg>
